<svg xmlns="http://www.w3.org/2000/svg" xmlns:xlink="http://www.w3.org/1999/xlink" width="69" zoomAndPan="magnify" viewBox="0 0 51.75 54.749999" height="73" preserveAspectRatio="xMidYMid meet" version="1.0"><defs><clipPath id="a4744a25f7"><path d="M 3 3 L 39 3 L 39 51 L 3 51 Z M 3 3 " clip-rule="nonzero"/></clipPath><clipPath id="ff9a23cae5"><path d="M 26.484375 0.0117188 L 41.894531 9.078125 L 15.394531 54.097656 L -0.0117188 45.027344 Z M 26.484375 0.0117188 " clip-rule="nonzero"/></clipPath><clipPath id="cd4944253d"><path d="M 34.191406 4.542969 C 36.234375 5.746094 37.714844 7.710938 38.308594 10.007812 C 38.902344 12.300781 38.5625 14.738281 37.359375 16.78125 L 19.941406 46.375 C 18.738281 48.417969 16.773438 49.898438 14.476562 50.492188 C 12.183594 51.085938 9.746094 50.746094 7.703125 49.542969 C 5.660156 48.339844 4.175781 46.375 3.582031 44.082031 C 2.988281 41.785156 3.332031 39.347656 4.53125 37.304688 L 21.953125 7.714844 C 23.152344 5.671875 25.121094 4.1875 27.414062 3.59375 C 29.710938 3 32.148438 3.34375 34.191406 4.542969 Z M 34.191406 4.542969 " clip-rule="nonzero"/></clipPath><clipPath id="2f25254c28"><path d="M 0 0 L 35.933594 0 L 35.933594 48 L 0 48 Z M 0 0 " clip-rule="nonzero"/></clipPath><clipPath id="79c4991be7"><path d="M 23.484375 -2.988281 L 38.894531 6.078125 L 12.394531 51.097656 L -3.011719 42.027344 Z M 23.484375 -2.988281 " clip-rule="nonzero"/></clipPath><clipPath id="6784b3e087"><path d="M 31.191406 1.542969 C 33.234375 2.746094 34.714844 4.710938 35.308594 7.007812 C 35.902344 9.300781 35.5625 11.738281 34.359375 13.78125 L 16.941406 43.375 C 15.738281 45.417969 13.773438 46.898438 11.476562 47.492188 C 9.183594 48.085938 6.746094 47.746094 4.703125 46.542969 C 2.660156 45.339844 1.175781 43.375 0.582031 41.082031 C -0.0117188 38.785156 0.332031 36.347656 1.53125 34.304688 L 18.953125 4.714844 C 20.152344 2.671875 22.121094 1.1875 24.414062 0.59375 C 26.710938 0 29.148438 0.34375 31.191406 1.542969 Z M 31.191406 1.542969 " clip-rule="nonzero"/></clipPath><clipPath id="9b8bd40c8d"><rect x="0" width="36" y="0" height="48"/></clipPath><clipPath id="4a13503e78"><path d="M 32.683594 32.839844 L 51.105469 32.839844 L 51.105469 51.257812 L 32.683594 51.257812 Z M 32.683594 32.839844 " clip-rule="nonzero"/></clipPath><clipPath id="dd10a6721f"><path d="M 41.894531 32.839844 C 36.808594 32.839844 32.683594 36.964844 32.683594 42.050781 C 32.683594 47.136719 36.808594 51.257812 41.894531 51.257812 C 46.980469 51.257812 51.105469 47.136719 51.105469 42.050781 C 51.105469 36.964844 46.980469 32.839844 41.894531 32.839844 Z M 41.894531 32.839844 " clip-rule="nonzero"/></clipPath><clipPath id="c29424c84f"><path d="M 0.683594 0.839844 L 19.105469 0.839844 L 19.105469 19.257812 L 0.683594 19.257812 Z M 0.683594 0.839844 " clip-rule="nonzero"/></clipPath><clipPath id="8bd3f729e3"><path d="M 9.894531 0.839844 C 4.808594 0.839844 0.683594 4.964844 0.683594 10.050781 C 0.683594 15.136719 4.808594 19.257812 9.894531 19.257812 C 14.980469 19.257812 19.105469 15.136719 19.105469 10.050781 C 19.105469 4.964844 14.980469 0.839844 9.894531 0.839844 Z M 9.894531 0.839844 " clip-rule="nonzero"/></clipPath><clipPath id="2cca588a29"><rect x="0" width="20" y="0" height="20"/></clipPath></defs><g clip-path="url(#a4744a25f7)"><g clip-path="url(#ff9a23cae5)"><g clip-path="url(#cd4944253d)"><g transform="matrix(1, 0, 0, 1, 3, 3)"><g clip-path="url(#9b8bd40c8d)"><g clip-path="url(#2f25254c28)"><g clip-path="url(#79c4991be7)"><g clip-path="url(#6784b3e087)"><path fill="#c5a253" d="M 23.484375 -2.988281 L 38.894531 6.078125 L 12.394531 51.097656 L -3.011719 42.027344 Z M 23.484375 -2.988281 " fill-opacity="1" fill-rule="nonzero"/></g></g></g></g></g></g></g></g><g clip-path="url(#4a13503e78)"><g clip-path="url(#dd10a6721f)"><g transform="matrix(1, 0, 0, 1, 32, 32)"><g clip-path="url(#2cca588a29)"><g clip-path="url(#c29424c84f)"><g clip-path="url(#8bd3f729e3)"><path fill="#c5a253" d="M 0.683594 0.839844 L 19.105469 0.839844 L 19.105469 19.257812 L 0.683594 19.257812 Z M 0.683594 0.839844 " fill-opacity="1" fill-rule="nonzero"/></g></g></g></g></g></g></svg>