<svg xmlns="http://www.w3.org/2000/svg" xmlns:xlink="http://www.w3.org/1999/xlink" width="1570" zoomAndPan="magnify" viewBox="0 0 1177.5 448.499987" height="598" preserveAspectRatio="xMidYMid meet" version="1.0"><defs><g/><clipPath id="e5e84785c5"><path d="M 0.40625 195 L 179 195 L 179 373.871094 L 0.40625 373.871094 Z M 0.40625 195 " clip-rule="nonzero"/></clipPath><clipPath id="e71acf0cc5"><path d="M 89 106.421875 L 267.859375 106.421875 L 267.859375 285 L 89 285 Z M 89 106.421875 " clip-rule="nonzero"/></clipPath></defs><path fill="#1d1d1d" d="M 89.546875 195.5625 L 178.6875 195.5625 L 178.6875 284.703125 L 89.546875 284.703125 Z M 89.546875 195.5625 " fill-opacity="1" fill-rule="evenodd"/><g clip-path="url(#e5e84785c5)"><path fill="#b9a3ed" d="M 0.40625 284.765625 L 0.40625 195.5625 L 89.546875 195.5625 L 89.546875 284.765625 L 178.75 284.765625 L 178.75 373.90625 L 89.546875 373.90625 L 89.546875 284.765625 Z M 0.40625 284.765625 " fill-opacity="1" fill-rule="evenodd"/></g><g clip-path="url(#e71acf0cc5)"><path fill="#ff4c8c" d="M 89.546875 195.5625 L 89.546875 106.421875 L 267.894531 106.421875 L 267.894531 284.765625 L 178.75 284.765625 L 178.75 195.5625 Z M 89.546875 195.5625 " fill-opacity="1" fill-rule="evenodd"/></g><g fill="#1d1d1d" fill-opacity="1"><g transform="translate(295.087477, 310.574396)"><g><path d="M 96.203125 -174.5 C 108.722656 -174.5 120.164062 -172.257812 130.53125 -167.78125 C 140.894531 -163.3125 149.835938 -157.03125 157.359375 -148.9375 C 164.878906 -140.851562 170.691406 -131.300781 174.796875 -120.28125 C 178.898438 -109.269531 180.953125 -97.222656 180.953125 -84.140625 C 180.953125 -71.128906 178.898438 -59.21875 174.796875 -48.40625 C 170.691406 -37.59375 164.898438 -28.265625 157.421875 -20.421875 C 149.941406 -12.578125 141.019531 -6.5 130.65625 -2.1875 C 120.289062 2.113281 108.804688 4.265625 96.203125 4.265625 C 83.929688 4.265625 72.65625 2.027344 62.375 -2.4375 C 52.09375 -6.90625 43.210938 -13.203125 35.734375 -21.328125 C 28.253906 -29.460938 22.457031 -39.035156 18.34375 -50.046875 C 14.238281 -61.066406 12.1875 -73.117188 12.1875 -86.203125 C 12.1875 -99.210938 14.21875 -111.101562 18.28125 -121.875 C 22.351562 -132.644531 28.128906 -141.953125 35.609375 -149.796875 C 43.085938 -157.640625 51.945312 -163.71875 62.1875 -168.03125 C 72.425781 -172.34375 83.765625 -174.5 96.203125 -174.5 Z M 161.328125 -74.375 C 161.328125 -87.707031 159.597656 -99.921875 156.140625 -111.015625 C 152.679688 -122.117188 147.800781 -131.773438 141.5 -139.984375 C 135.207031 -148.191406 127.8125 -154.53125 119.3125 -159 C 110.820312 -163.476562 101.535156 -165.71875 91.453125 -165.71875 C 82.671875 -165.71875 74.660156 -164.109375 67.421875 -160.890625 C 60.191406 -157.679688 53.9375 -153.046875 48.65625 -146.984375 C 43.375 -140.929688 39.304688 -133.597656 36.453125 -124.984375 C 33.609375 -116.367188 32.1875 -106.65625 32.1875 -95.84375 C 32.1875 -82.507812 33.894531 -70.253906 37.3125 -59.078125 C 40.726562 -47.898438 45.566406 -38.207031 51.828125 -30 C 58.085938 -21.789062 65.441406 -15.425781 73.890625 -10.90625 C 82.347656 -6.394531 91.578125 -4.140625 101.578125 -4.140625 C 110.359375 -4.140625 118.40625 -5.742188 125.71875 -8.953125 C 133.03125 -12.171875 139.347656 -16.847656 144.671875 -22.984375 C 150.003906 -29.117188 154.113281 -36.515625 157 -45.171875 C 159.882812 -53.835938 161.328125 -63.570312 161.328125 -74.375 Z M 161.328125 -74.375 "/></g></g></g><g fill="#1d1d1d" fill-opacity="1"><g transform="translate(468.96565, 310.574396)"><g><path d="M 42.3125 -109.75 L 42.3125 -96.9375 C 47.914062 -103.03125 54.171875 -107.722656 61.078125 -111.015625 C 67.992188 -114.316406 75.273438 -115.96875 82.921875 -115.96875 C 90.148438 -115.96875 96.789062 -114.5625 102.84375 -111.75 C 108.90625 -108.945312 114.148438 -104.984375 118.578125 -99.859375 C 123.015625 -94.742188 126.472656 -88.691406 128.953125 -81.703125 C 131.429688 -74.710938 132.671875 -67.070312 132.671875 -58.78125 C 132.671875 -49.257812 131.242188 -40.695312 128.390625 -33.09375 C 125.546875 -25.5 121.601562 -19.039062 116.5625 -13.71875 C 111.53125 -8.394531 105.679688 -4.328125 99.015625 -1.515625 C 92.347656 1.285156 85.234375 2.6875 77.671875 2.6875 C 70.847656 2.6875 64.46875 1.382812 58.53125 -1.21875 C 52.59375 -3.820312 47.347656 -7.476562 42.796875 -12.1875 L 42.796875 42.671875 C 42.796875 46.410156 44.585938 48.523438 48.171875 49.015625 L 58.40625 50.359375 C 61.09375 50.929688 62.4375 52.070312 62.4375 53.78125 C 62.4375 55.8125 60.972656 56.828125 58.046875 56.828125 L 13.78125 56.828125 C 10.9375 56.828125 9.515625 55.8125 9.515625 53.78125 C 9.515625 52.144531 10.8125 51.046875 13.40625 50.484375 L 20.125 49.140625 C 23.78125 48.410156 25.609375 46.253906 25.609375 42.671875 L 25.609375 -95.59375 C 25.609375 -98.6875 24.304688 -100.273438 21.703125 -100.359375 L 11.578125 -100.59375 C 9.140625 -100.675781 7.921875 -101.53125 7.921875 -103.15625 C 7.921875 -103.882812 8.207031 -104.515625 8.78125 -105.046875 C 9.351562 -105.578125 10.410156 -106.128906 11.953125 -106.703125 L 29.140625 -112.671875 C 31.171875 -113.398438 32.835938 -113.90625 34.140625 -114.1875 C 35.441406 -114.476562 36.539062 -114.625 37.4375 -114.625 C 40.6875 -114.625 42.3125 -113 42.3125 -109.75 Z M 76.703125 -106.203125 C 64.015625 -106.203125 52.710938 -100.390625 42.796875 -88.765625 L 42.796875 -22.4375 C 47.109375 -17.070312 52.066406 -12.96875 57.671875 -10.125 C 63.285156 -7.28125 69.179688 -5.859375 75.359375 -5.859375 C 82.671875 -5.859375 89.273438 -7.765625 95.171875 -11.578125 C 101.066406 -15.398438 105.738281 -21.070312 109.1875 -28.59375 C 112.644531 -36.113281 114.375 -45.441406 114.375 -56.578125 C 114.375 -67.304688 112.75 -76.347656 109.5 -83.703125 C 106.25 -91.066406 101.773438 -96.65625 96.078125 -100.46875 C 90.390625 -104.289062 83.929688 -106.203125 76.703125 -106.203125 Z M 76.703125 -106.203125 "/></g></g></g><g fill="#1d1d1d" fill-opacity="1"><g transform="translate(593.582376, 310.574396)"><g><path d="M 45.734375 -173.515625 L 45.734375 -95.234375 C 51.660156 -100.273438 57.0625 -104.316406 61.9375 -107.359375 C 66.820312 -110.410156 71.457031 -112.609375 75.84375 -113.953125 C 80.238281 -115.296875 84.585938 -115.96875 88.890625 -115.96875 C 95.722656 -115.96875 101.65625 -114.5625 106.6875 -111.75 C 111.726562 -108.945312 115.648438 -104.921875 118.453125 -99.671875 C 121.265625 -94.429688 122.671875 -88.15625 122.671875 -80.84375 L 122.671875 -14.75 C 122.671875 -12.632812 123.195312 -11.007812 124.25 -9.875 C 125.3125 -8.738281 126.773438 -7.96875 128.640625 -7.5625 L 134.625 -6.34375 C 137.21875 -5.6875 138.515625 -4.585938 138.515625 -3.046875 C 138.515625 -1.015625 137.050781 0 134.125 0 L 93.890625 0 C 90.878906 0 89.375 -1.054688 89.375 -3.171875 C 89.375 -4.710938 90.632812 -5.8125 93.15625 -6.46875 L 99.859375 -7.6875 C 103.597656 -8.414062 105.46875 -10.769531 105.46875 -14.75 L 105.46875 -78.046875 C 105.46875 -87.148438 103.191406 -93.957031 98.640625 -98.46875 C 94.085938 -102.976562 88.070312 -105.234375 80.59375 -105.234375 C 76.039062 -105.234375 71.101562 -104.015625 65.78125 -101.578125 C 60.457031 -99.140625 54.585938 -95.238281 48.171875 -89.875 L 45.734375 -87.796875 L 45.734375 -14.140625 C 45.734375 -12.273438 46.195312 -10.832031 47.125 -9.8125 C 48.0625 -8.800781 49.382812 -8.09375 51.09375 -7.6875 L 57.4375 -6.46875 C 60.03125 -5.8125 61.328125 -4.710938 61.328125 -3.171875 C 61.328125 -1.054688 59.828125 0 56.828125 0 L 16.703125 0 C 13.859375 0 12.4375 -1.015625 12.4375 -3.046875 C 12.4375 -4.671875 13.738281 -5.769531 16.34375 -6.34375 L 23.046875 -7.6875 C 26.703125 -8.414062 28.53125 -10.566406 28.53125 -14.140625 L 28.53125 -159.375 C 28.53125 -162.457031 27.226562 -164.039062 24.625 -164.125 L 14.515625 -164.375 C 12.078125 -164.613281 10.859375 -165.46875 10.859375 -166.9375 C 10.859375 -167.75 11.140625 -168.394531 11.703125 -168.875 C 12.273438 -169.363281 13.332031 -169.894531 14.875 -170.46875 L 32.5625 -176.4375 C 36.375 -177.820312 39.175781 -178.515625 40.96875 -178.515625 C 44.144531 -178.515625 45.734375 -176.847656 45.734375 -173.515625 Z M 45.734375 -173.515625 "/></g></g></g><g fill="#1d1d1d" fill-opacity="1"><g transform="translate(721.369402, 310.574396)"><g><path d="M 24.625 -32.4375 L 24.625 -95.484375 C 24.625 -98.566406 23.328125 -100.148438 20.734375 -100.234375 L 10.609375 -100.46875 C 8.171875 -100.71875 6.953125 -101.570312 6.953125 -103.03125 C 6.953125 -103.84375 7.234375 -104.492188 7.796875 -104.984375 C 8.367188 -105.472656 9.425781 -106.003906 10.96875 -106.578125 L 28.65625 -112.546875 C 32.5625 -113.929688 35.363281 -114.625 37.0625 -114.625 C 40.238281 -114.625 41.828125 -112.957031 41.828125 -109.625 L 41.828125 -35.359375 C 41.828125 -26.253906 44.0625 -19.425781 48.53125 -14.875 C 53 -10.320312 58.894531 -8.046875 66.21875 -8.046875 C 70.769531 -8.046875 75.644531 -9.285156 80.84375 -11.765625 C 86.050781 -14.242188 91.820312 -18.164062 98.15625 -23.53125 L 100.109375 -25.125 L 100.109375 -95.484375 C 100.109375 -98.566406 98.769531 -100.148438 96.09375 -100.234375 L 86.09375 -100.46875 C 83.65625 -100.71875 82.4375 -101.570312 82.4375 -103.03125 C 82.4375 -103.84375 82.71875 -104.492188 83.28125 -104.984375 C 83.851562 -105.472656 84.867188 -106.003906 86.328125 -106.578125 L 104.140625 -112.546875 C 107.953125 -113.929688 110.753906 -114.625 112.546875 -114.625 C 115.710938 -114.625 117.296875 -112.957031 117.296875 -109.625 L 117.296875 -14.140625 C 117.296875 -10.566406 119.085938 -8.414062 122.671875 -7.6875 L 129.125 -6.46875 C 131.8125 -5.894531 133.15625 -4.753906 133.15625 -3.046875 C 133.15625 -1.015625 131.648438 0 128.640625 0 L 110.234375 0 C 106.984375 0 104.539062 -0.875 102.90625 -2.625 C 101.28125 -4.375 100.46875 -7.117188 100.46875 -10.859375 L 100.46875 -17.921875 C 94.625 -12.960938 89.28125 -8.957031 84.4375 -5.90625 C 79.601562 -2.863281 75.03125 -0.667969 70.71875 0.671875 C 66.414062 2.015625 62.148438 2.6875 57.921875 2.6875 C 51.253906 2.6875 45.421875 1.261719 40.421875 -1.578125 C 35.421875 -4.429688 31.535156 -8.476562 28.765625 -13.71875 C 26.003906 -18.957031 24.625 -25.195312 24.625 -32.4375 Z M 24.625 -32.4375 "/></g></g></g><g fill="#1d1d1d" fill-opacity="1"><g transform="translate(845.254521, 310.574396)"><g><path d="M 45.734375 -109.75 L 45.734375 -95.234375 C 51.660156 -100.359375 57.0625 -104.421875 61.9375 -107.421875 C 66.820312 -110.429688 71.457031 -112.609375 75.84375 -113.953125 C 80.238281 -115.296875 84.585938 -115.96875 88.890625 -115.96875 C 95.722656 -115.96875 101.65625 -114.5625 106.6875 -111.75 C 111.726562 -108.945312 115.648438 -104.921875 118.453125 -99.671875 C 121.265625 -94.429688 122.671875 -88.15625 122.671875 -80.84375 L 122.671875 -14.75 C 122.671875 -12.632812 123.195312 -11.007812 124.25 -9.875 C 125.3125 -8.738281 126.773438 -7.96875 128.640625 -7.5625 L 134.625 -6.34375 C 137.21875 -5.6875 138.515625 -4.585938 138.515625 -3.046875 C 138.515625 -1.015625 137.050781 0 134.125 0 L 93.890625 0 C 90.878906 0 89.375 -1.054688 89.375 -3.171875 C 89.375 -4.710938 90.632812 -5.8125 93.15625 -6.46875 L 99.859375 -7.6875 C 103.597656 -8.414062 105.46875 -10.769531 105.46875 -14.75 L 105.46875 -78.046875 C 105.46875 -87.148438 103.191406 -93.957031 98.640625 -98.46875 C 94.085938 -102.976562 88.070312 -105.234375 80.59375 -105.234375 C 76.039062 -105.234375 71.101562 -104.015625 65.78125 -101.578125 C 60.457031 -99.140625 54.585938 -95.238281 48.171875 -89.875 L 45.734375 -87.796875 L 45.734375 -14.140625 C 45.734375 -12.273438 46.195312 -10.832031 47.125 -9.8125 C 48.0625 -8.800781 49.382812 -8.09375 51.09375 -7.6875 L 57.4375 -6.46875 C 60.03125 -5.8125 61.328125 -4.710938 61.328125 -3.171875 C 61.328125 -1.054688 59.828125 0 56.828125 0 L 16.703125 0 C 13.859375 0 12.4375 -1.015625 12.4375 -3.046875 C 12.4375 -4.671875 13.738281 -5.769531 16.34375 -6.34375 L 23.046875 -7.6875 C 26.703125 -8.414062 28.53125 -10.566406 28.53125 -14.140625 L 28.53125 -95.59375 C 28.53125 -98.6875 27.226562 -100.273438 24.625 -100.359375 L 14.515625 -100.59375 C 12.078125 -100.675781 10.859375 -101.53125 10.859375 -103.15625 C 10.859375 -103.882812 11.140625 -104.515625 11.703125 -105.046875 C 12.273438 -105.578125 13.332031 -106.128906 14.875 -106.703125 L 32.5625 -112.671875 C 34.59375 -113.398438 36.253906 -113.90625 37.546875 -114.1875 C 38.847656 -114.476562 39.988281 -114.625 40.96875 -114.625 C 44.144531 -114.625 45.734375 -113 45.734375 -109.75 Z M 45.734375 -109.75 "/></g></g></g><g fill="#1d1d1d" fill-opacity="1"><g transform="translate(973.041524, 310.574396)"><g><path d="M 19.265625 -105.46875 L 11.953125 -107.1875 C 9.753906 -107.75 8.304688 -108.316406 7.609375 -108.890625 C 6.921875 -109.460938 6.578125 -110.15625 6.578125 -110.96875 C 6.578125 -112.914062 7.835938 -113.890625 10.359375 -113.890625 L 18.40625 -113.890625 C 20.769531 -113.890625 22.640625 -114.210938 24.015625 -114.859375 C 25.398438 -115.515625 26.414062 -116.734375 27.0625 -118.515625 L 33.28125 -135.34375 C 34.664062 -138.4375 36.414062 -139.984375 38.53125 -139.984375 C 40.882812 -139.984375 42.0625 -138.722656 42.0625 -136.203125 L 42.0625 -113.890625 L 68.890625 -113.890625 C 71.734375 -113.890625 73.15625 -112.914062 73.15625 -110.96875 C 73.15625 -109.664062 72.503906 -108.609375 71.203125 -107.796875 C 69.910156 -106.984375 67.878906 -106.578125 65.109375 -106.578125 L 42.0625 -106.578125 L 42.0625 -25.609375 C 42.0625 -20.160156 43.257812 -15.972656 45.65625 -13.046875 C 48.0625 -10.117188 51.378906 -8.65625 55.609375 -8.65625 C 58.609375 -8.65625 60.941406 -9.082031 62.609375 -9.9375 C 64.273438 -10.789062 65.578125 -11.742188 66.515625 -12.796875 C 67.453125 -13.859375 68.265625 -14.816406 68.953125 -15.671875 C 69.640625 -16.523438 70.515625 -16.953125 71.578125 -16.953125 C 73.285156 -16.953125 74.140625 -15.894531 74.140625 -13.78125 C 74.140625 -11.425781 73.125 -9.046875 71.09375 -6.640625 C 69.0625 -4.242188 66.253906 -2.253906 62.671875 -0.671875 C 59.097656 0.910156 54.953125 1.703125 50.234375 1.703125 C 42.671875 1.703125 36.550781 -0.367188 31.875 -4.515625 C 27.207031 -8.660156 24.875 -14.878906 24.875 -23.171875 L 24.875 -98.640625 C 24.875 -100.515625 24.46875 -101.976562 23.65625 -103.03125 C 22.84375 -104.09375 21.378906 -104.90625 19.265625 -105.46875 Z M 19.265625 -105.46875 "/></g></g></g></svg>