<svg xmlns="http://www.w3.org/2000/svg" xmlns:xlink="http://www.w3.org/1999/xlink" width="358" zoomAndPan="magnify" viewBox="0 0 268.5 268.500001" height="358" preserveAspectRatio="xMidYMid meet" version="1.0"><defs><g/><clipPath id="50fbeda6c3"><path d="M 0 89 L 179 89 L 179 267.253906 L 0 267.253906 Z M 0 89 " clip-rule="nonzero"/></clipPath><clipPath id="fb98476368"><path d="M 89 0 L 267.253906 0 L 267.253906 179 L 89 179 Z M 89 0 " clip-rule="nonzero"/></clipPath></defs><path fill="#1d1d1d" d="M 89.074219 89.074219 L 178.148438 89.074219 L 178.148438 178.148438 L 89.074219 178.148438 Z M 89.074219 89.074219 " fill-opacity="1" fill-rule="evenodd"/><g clip-path="url(#50fbeda6c3)"><path fill="#b9a3ed" d="M 0 178.210938 L 0 89.074219 L 89.074219 89.074219 L 89.074219 178.210938 L 178.210938 178.210938 L 178.210938 267.289062 L 89.074219 267.289062 L 89.074219 178.210938 Z M 0 178.210938 " fill-opacity="1" fill-rule="evenodd"/></g><g clip-path="url(#fb98476368)"><path fill="#ff4c8c" d="M 89.074219 89.074219 L 89.074219 0 L 267.289062 0 L 267.289062 178.210938 L 178.210938 178.210938 L 178.210938 89.074219 Z M 89.074219 89.074219 " fill-opacity="1" fill-rule="evenodd"/></g><g fill="#1d1d1d" fill-opacity="1"><g transform="translate(206.315249, 260.81247)"><g><path d="M 1.625 0.078125 C 1.414062 0.078125 1.234375 0.00390625 1.078125 -0.140625 C 0.929688 -0.296875 0.859375 -0.484375 0.859375 -0.703125 C 0.859375 -0.910156 0.929688 -1.085938 1.078125 -1.234375 C 1.234375 -1.390625 1.414062 -1.46875 1.625 -1.46875 C 1.84375 -1.46875 2.023438 -1.390625 2.171875 -1.234375 C 2.328125 -1.085938 2.40625 -0.910156 2.40625 -0.703125 C 2.40625 -0.484375 2.328125 -0.296875 2.171875 -0.140625 C 2.023438 0.00390625 1.84375 0.078125 1.625 0.078125 Z M 1.625 0.078125 "/></g></g></g></svg>